<svg xmlns="http://www.w3.org/2000/svg" viewBox="0 0 1000 560" font-family="system-ui, -apple-system, 'Segoe UI', Roboto, sans-serif">
  <defs>
    <filter id="terminal-shadow" x="-5%" y="-5%" width="110%" height="115%">
      <feDropShadow stdDeviation="6" dx="0" dy="6" flood-opacity="0.18"/>
    </filter>
    <linearGradient id="titlebar-grad" x1="0" y1="0" x2="0" y2="1">
      <stop offset="0%" stop-color="#3A3A3D"/>
      <stop offset="100%" stop-color="#2A2A2D"/>
    </linearGradient>
  </defs>

  <!-- Canvas -->
  <rect width="1000" height="560" fill="#FAFAFA"/>

  <!-- Caption above terminal -->
  <text x="500" y="32" text-anchor="middle" font-size="14" font-weight="600" fill="#1B2A4A">One command. Three sensors. Eight minutes.</text>

  <!-- Terminal window -->
  <g filter="url(#terminal-shadow)" transform="translate(50,56)">
    <!-- Window body -->
    <rect width="900" height="476" rx="10" fill="#1E1E1E"/>

    <!-- Title bar -->
    <path d="M0 10 Q0 0 10 0 H890 Q900 0 900 10 V36 H0 Z" fill="url(#titlebar-grad)"/>
    <line x1="0" y1="36" x2="900" y2="36" stroke="#000000" opacity="0.4"/>

    <!-- Traffic lights -->
    <circle cx="22" cy="18" r="6.5" fill="#FF5F57"/>
    <circle cx="42" cy="18" r="6.5" fill="#FEBC2E"/>
    <circle cx="62" cy="18" r="6.5" fill="#28C840"/>

    <!-- Title -->
    <text x="450" y="22" text-anchor="middle" font-size="11" font-weight="500" fill="#E5E7EB" font-family="system-ui, -apple-system, 'Segoe UI', sans-serif">CloudLens Ansible — Azure Deployment</text>

    <!-- Terminal text -->
    <g font-family="SF Mono, Menlo, Consolas, 'Liberation Mono', monospace" font-size="11.5">
      <!-- Prompt + command -->
      <text x="20" y="62" fill="#22C55E">brine@cloudshell</text>
      <text x="135" y="62" fill="#7DD3FC">:</text>
      <text x="141" y="62" fill="#A78BFA">~</text>
      <text x="151" y="62" fill="#E5E7EB">$ </text>
      <text x="166" y="62" fill="#F4F4F5">curl -sSL https://raw.githubusercontent.com/Keysight-Tech/cloudlens-ansible-azure/main/quickstart.sh | bash</text>

      <!-- Banner -->
      <g fill="#60A5FA">
        <text x="20" y="86">╔═══════════════════════════════════════════════════════════════════════════╗</text>
        <text x="20" y="102">║</text>
        <text x="20" y="118">║</text>
        <text x="20" y="134">╚═══════════════════════════════════════════════════════════════════════════╝</text>
      </g>
      <text x="40" y="102" fill="#FCD34D" font-weight="600">CloudLens Ansible — Azure Deployment Quickstart</text>
      <text x="40" y="118" fill="#9CA3AF">v1.0.0  ·  Keysight Technologies</text>
      <text x="858" y="102" fill="#60A5FA">║</text>
      <text x="858" y="118" fill="#60A5FA">║</text>

      <!-- Detection block -->
      <text x="20" y="160" fill="#22C55E">✓</text>
      <text x="36" y="160" fill="#E5E7EB">Detected environment: </text>
      <text x="186" y="160" fill="#FCD34D">Azure Cloud Shell</text>

      <text x="20" y="178" fill="#22C55E">✓</text>
      <text x="36" y="178" fill="#E5E7EB">Authenticated via managed identity</text>

      <text x="20" y="196" fill="#22C55E">✓</text>
      <text x="36" y="196" fill="#E5E7EB">Ansible 2.16 + azure.azcollection 2.4 installed</text>

      <text x="20" y="214" fill="#22C55E">✓</text>
      <text x="36" y="214" fill="#E5E7EB">Discovered </text>
      <text x="106" y="214" fill="#FCD34D">3 VMs</text>
      <text x="142" y="214" fill="#E5E7EB"> matching tag </text>
      <text x="230" y="214" fill="#A78BFA">cloudlens=true</text>

      <text x="36" y="232" fill="#9CA3AF">  → WebServerLB1   (ubuntu_22.04)</text>
      <text x="36" y="250" fill="#9CA3AF">  → WebServerLB2   (ubuntu_22.04)</text>
      <text x="36" y="268" fill="#9CA3AF">  → brine-winvm    (windows_server_2022)</text>

      <!-- Section divider -->
      <text x="20" y="294" fill="#60A5FA">━━━ Deploying CloudLens sensors ━━━</text>

      <!-- PLAY RECAP -->
      <text x="20" y="322" fill="#FCD34D" font-weight="600">PLAY RECAP </text>
      <text x="98" y="322" fill="#60A5FA">─────────────────────────────────────────────────────────────────</text>

      <text x="20" y="344" fill="#E5E7EB">WebServerLB1</text>
      <text x="160" y="344" fill="#9CA3AF">: </text>
      <text x="172" y="344" fill="#22C55E">ok=27</text>
      <text x="216" y="344" fill="#9CA3AF">   </text>
      <text x="236" y="344" fill="#FCD34D">changed=9</text>
      <text x="312" y="344" fill="#9CA3AF">   </text>
      <text x="332" y="344" fill="#9CA3AF">failed=0</text>
      <text x="402" y="344" fill="#22C55E" font-weight="600">  ✓</text>

      <text x="20" y="362" fill="#E5E7EB">WebServerLB2</text>
      <text x="160" y="362" fill="#9CA3AF">: </text>
      <text x="172" y="362" fill="#22C55E">ok=25</text>
      <text x="236" y="362" fill="#FCD34D">changed=9</text>
      <text x="332" y="362" fill="#9CA3AF">failed=0</text>
      <text x="402" y="362" fill="#22C55E" font-weight="600">  ✓</text>

      <text x="20" y="380" fill="#E5E7EB">brine-winvm</text>
      <text x="160" y="380" fill="#9CA3AF">: </text>
      <text x="172" y="380" fill="#22C55E">ok=25</text>
      <text x="236" y="380" fill="#FCD34D">changed=8</text>
      <text x="332" y="380" fill="#9CA3AF">failed=0</text>
      <text x="402" y="380" fill="#22C55E" font-weight="600">  ✓</text>

      <!-- Final result -->
      <text x="20" y="416" fill="#22C55E" font-weight="600">✓ Done</text>
      <text x="68" y="416" fill="#E5E7EB"> — </text>
      <text x="88" y="416" fill="#FCD34D" font-weight="600">3 sensors</text>
      <text x="156" y="416" fill="#E5E7EB"> registered to CLMS in </text>
      <text x="306" y="416" fill="#FCD34D" font-weight="600">8 minutes</text>

      <text x="20" y="438" fill="#9CA3AF">View sensors:  </text>
      <text x="118" y="438" fill="#7DD3FC" text-decoration="underline">https://20.84.115.190/sensors</text>

      <!-- Final prompt with blinking cursor -->
      <text x="20" y="462" fill="#22C55E">brine@cloudshell</text>
      <text x="135" y="462" fill="#7DD3FC">:</text>
      <text x="141" y="462" fill="#A78BFA">~</text>
      <text x="151" y="462" fill="#E5E7EB">$ </text>
      <rect x="166" y="452" width="8" height="14" fill="#E5E7EB">
        <animate attributeName="opacity" values="1;0;1" dur="1s" repeatCount="indefinite"/>
      </rect>
    </g>
  </g>
</svg>
